<svg width="120" height="100" viewBox="0 0 120 100" fill="none" xmlns="http://www.w3.org/2000/svg">
<rect x="0.5" y="0.5" width="119" height="99" fill="#272727" stroke="black"/>
<ellipse cx="42.8302" cy="59.8302" rx="31" ry="22.5" transform="rotate(-45 42.8302 59.8302)" fill="#D9D9D9"/>
<ellipse cx="77.8302" cy="39.8302" rx="31" ry="22.5" transform="rotate(-45 77.8302 39.8302)" fill="#D9D9D9"/>
<ellipse cx="77.7591" cy="40.65" rx="26" ry="17.5" transform="rotate(-45 77.7591 40.65)" fill="black"/>
<path d="M60.7904 41.5685C64.054 44.8322 65.0853 49.7941 64.0184 55.2539C62.9523 60.7101 59.796 66.6045 54.78 71.6206C49.7639 76.6366 43.8694 79.7929 38.4133 80.859C32.9534 81.9259 27.9916 80.8947 24.7279 77.631C21.4642 74.3673 20.433 69.4055 21.4999 63.9456C22.566 58.4895 25.7223 52.595 30.7383 47.5789C35.7544 42.5629 41.6488 39.4066 47.105 38.3405C52.5648 37.2736 57.5267 38.3049 60.7904 41.5685Z" fill="black" stroke="black"/>
<mask id="mask0_2_149" style="mask-type:alpha" maskUnits="userSpaceOnUse" x="15" y="32" width="55" height="55">
<ellipse cx="42.8302" cy="59.8302" rx="31" ry="22.5" transform="rotate(-45 42.8302 59.8302)" fill="#D9D9D9"/>
</mask>
<g mask="url(#mask0_2_149)">
<ellipse cx="77.8302" cy="39.8302" rx="31" ry="22.5" transform="rotate(-45 77.8302 39.8302)" fill="#D9D9D9"/>
</g>
<mask id="mask1_2_149" style="mask-type:alpha" maskUnits="userSpaceOnUse" x="55" y="18" width="45" height="45">
<ellipse cx="77.7591" cy="40.7592" rx="26" ry="17.5" transform="rotate(-45 77.7591 40.7592)" fill="black"/>
</mask>
<g mask="url(#mask1_2_149)">
<ellipse cx="42.7591" cy="59.7089" rx="26" ry="17.5" transform="rotate(-45 42.7591 59.7089)" fill="black"/>
</g>
</svg>
