<svg width="120" height="120" viewBox="0 0 120 120" fill="none" xmlns="http://www.w3.org/2000/svg">
<path d="M22.5711 59.5H28.4289C29.755 59.5 31.0268 58.9732 31.9645 58.0355L41.9645 48.0355C45.1143 44.8857 50.5 47.1165 50.5 51.5711V94.5C50.5 97.2614 52.7386 99.5 55.5 99.5H65.5C68.2614 99.5 70.5 97.2614 70.5 94.5V51.8582C70.5 47.4342 75.8229 45.1898 78.9905 48.2782L89.0436 58.08C89.9774 58.9904 91.2299 59.5 92.5341 59.5H98.4289C102.883 59.5 105.114 54.1143 101.964 50.9645L71.9645 20.9645C71.0268 20.0268 69.755 19.5 68.4289 19.5H52.5711C51.245 19.5 49.9732 20.0268 49.0355 20.9645L19.0355 50.9645C15.8857 54.1143 18.1165 59.5 22.5711 59.5Z" fill="white"/>
</svg>
