<svg width="120" height="120" viewBox="0 0 120 120" fill="none" xmlns="http://www.w3.org/2000/svg">
<path d="M57.0049 50.0049L20.5189 13.5189C18.8154 11.8154 16.0876 11.7106 14.2585 13.2785C12.2274 15.0194 12.0995 18.1179 13.9803 20.0203L50.5048 56.9646C52.4383 58.9204 52.4293 62.0707 50.4846 64.0154L14.0224 100.478C12.1489 102.351 12.3336 105.441 14.417 107.078C16.1761 108.46 18.6905 108.309 20.2724 106.728L56.9645 70.0355C58.9171 68.0829 62.0829 68.0829 64.0355 70.0355L99.9904 105.99C101.884 107.884 104.988 107.764 106.73 105.732C108.293 103.908 108.189 101.189 106.49 99.4904L70.5355 63.5355C68.5829 61.5829 68.5829 58.4171 70.5355 56.4645L106.941 20.0586C108.418 18.5822 108.61 16.2547 107.397 14.5556C105.874 12.4239 102.809 12.1525 100.936 13.9834L64.0351 50.0453C62.0762 51.9597 58.9416 51.9416 57.0049 50.0049Z" fill="white" stroke="black"/>
</svg>
