<svg width="120" height="100" viewBox="0 0 120 100" fill="none" xmlns="http://www.w3.org/2000/svg">
<ellipse cx="42.8302" cy="59.8302" rx="31" ry="22.5" transform="rotate(-45 42.8302 59.8302)" fill="white"/>
<ellipse cx="77.8302" cy="39.8302" rx="31" ry="22.5" transform="rotate(-45 77.8302 39.8302)" fill="white"/>
<ellipse cx="77.7591" cy="40.65" rx="26" ry="17.5" transform="rotate(-45 77.7591 40.65)" fill="black"/>
<ellipse cx="42.7591" cy="59.5998" rx="26" ry="17.5" transform="rotate(-45 42.7591 59.5998)" fill="black"/>
<mask id="mask0_6_96" style="mask-type:alpha" maskUnits="userSpaceOnUse" x="15" y="32" width="55" height="55">
<ellipse cx="42.8302" cy="59.8302" rx="31" ry="22.5" transform="rotate(-45 42.8302 59.8302)" fill="#D9D9D9"/>
</mask>
<g mask="url(#mask0_6_96)">
<ellipse cx="77.8302" cy="39.8302" rx="31" ry="22.5" transform="rotate(-45 77.8302 39.8302)" fill="white"/>
</g>
<mask id="mask1_6_96" style="mask-type:alpha" maskUnits="userSpaceOnUse" x="55" y="18" width="45" height="45">
<ellipse cx="77.7591" cy="40.7592" rx="26" ry="17.5" transform="rotate(-45 77.7591 40.7592)" fill="black"/>
</mask>
<g mask="url(#mask1_6_96)">
<ellipse cx="42.7591" cy="59.7089" rx="26" ry="17.5" transform="rotate(-45 42.7591 59.7089)" fill="black"/>
</g>
</svg>
