<svg width="120" height="120" viewBox="0 0 120 120" fill="none" xmlns="http://www.w3.org/2000/svg">
<path d="M56.1885 78.5725L17.0838 33.1479C14.8178 30.5156 10.5 32.9633 10.5 36.4365C10.5 37.3446 10.8299 37.3765 11.4282 38.0595L56.2061 89.1695C58.2094 91.4562 61.7728 91.4407 63.7562 89.1368L108.488 37.1757C109.134 36.425 109.444 35.442 109.346 34.4563C109.028 31.2837 105.059 30.0442 102.993 32.4726L63.7859 78.5506C61.7969 80.8882 58.1909 80.8986 56.1885 78.5725Z" fill="white"/>
<path d="M64.3115 41.9275L103.416 87.3521C105.682 89.9844 110 87.5367 110 84.0635C110 83.1554 109.67 83.1235 109.072 82.4405L64.2939 31.3305C62.2906 29.0438 58.7272 29.0593 56.7438 31.3632L12.0121 83.3243C11.3659 84.075 11.0558 85.058 11.1544 86.0437C11.4716 89.2163 15.4411 90.4558 17.5073 88.0274L56.7141 41.9494C58.7031 39.6118 62.3091 39.6014 64.3115 41.9275Z" fill="white"/>
</svg>
